# xmcd
#
# Track frame offsets:
# 150
# 15537
# 37444
# 48122
# 66116
# 88115
# 100651
# 119150
# 139227
# 154138
# 166944
# 179738
# 202030
#
# Disc length: 2777 seconds
#
#
# Revision: 0
# Processed by: cddbd v1.5.1PL2 Copyright (c) Steve Scherf et al.
# Submitted via: FreeRIP 2.945 
#
DISCID=bd0ad70d
DTITLE=Megan Hamilton - Feudal Ladies Club
DYEAR=2006
DGENRE=Alternative
TTITLE0=Traffic
TTITLE1=Prophecy
TTITLE2=My Boy (for Matt)
TTITLE3=Don't Ask Me
TTITLE4=Time
TTITLE5=Harria (for the Vogelsangs)
TTITLE6=My Old Heart
TTITLE7=Disappointed
TTITLE8=Sleeping on the Floor
TTITLE9=You're Coming Home
TTITLE10=The Martyr
TTITLE11=We're Not Weird (Ode to Auntie and Uncle)
TTITLE12=11 Things
EXTD=
EXTT0=
EXTT1=
EXTT2=
EXTT3=
EXTT4=
EXTT5=
EXTT6=
EXTT7=
EXTT8=
EXTT9=
EXTT10=
EXTT11=
EXTT12=
PLAYORDER=
